<mxfile host="app.diagrams.net" modified="2020-09-25T02:37:47.683Z" agent="5.0 (Windows NT 10.0; Win64; x64) AppleWebKit/537.36 (KHTML, like Gecko) Chrome/85.0.4183.121 Safari/537.36" etag="X1agBfuR01RyQ6k2AYSq" version="13.7.5" type="github">
  <diagram id="Cf62of3ECSl_03fqjoq8" name="Página-1">
    <mxGraphModel dx="782" dy="738" grid="1" gridSize="10" guides="1" tooltips="1" connect="1" arrows="1" fold="1" page="1" pageScale="1" pageWidth="827" pageHeight="1169" math="0" shadow="0">
      <root>
        <mxCell id="0" />
        <mxCell id="1" parent="0" />
        <mxCell id="FXd20-3gAOn-vbb6WulK-12" value="" style="edgeStyle=orthogonalEdgeStyle;rounded=0;orthogonalLoop=1;jettySize=auto;html=1;" edge="1" parent="1" source="FXd20-3gAOn-vbb6WulK-1" target="FXd20-3gAOn-vbb6WulK-2">
          <mxGeometry relative="1" as="geometry" />
        </mxCell>
        <mxCell id="FXd20-3gAOn-vbb6WulK-13" value="" style="edgeStyle=orthogonalEdgeStyle;rounded=0;orthogonalLoop=1;jettySize=auto;html=1;" edge="1" parent="1" source="FXd20-3gAOn-vbb6WulK-1" target="FXd20-3gAOn-vbb6WulK-3">
          <mxGeometry relative="1" as="geometry" />
        </mxCell>
        <mxCell id="FXd20-3gAOn-vbb6WulK-1" value="void setup" style="rounded=1;whiteSpace=wrap;html=1;" vertex="1" parent="1">
          <mxGeometry x="100" y="70" width="120" height="60" as="geometry" />
        </mxCell>
        <mxCell id="FXd20-3gAOn-vbb6WulK-14" style="edgeStyle=orthogonalEdgeStyle;rounded=0;orthogonalLoop=1;jettySize=auto;html=1;entryX=0.5;entryY=0;entryDx=0;entryDy=0;" edge="1" parent="1" source="FXd20-3gAOn-vbb6WulK-2" target="FXd20-3gAOn-vbb6WulK-3">
          <mxGeometry relative="1" as="geometry">
            <mxPoint x="300" y="180" as="targetPoint" />
            <Array as="points">
              <mxPoint x="354" y="155" />
              <mxPoint x="160" y="155" />
            </Array>
          </mxGeometry>
        </mxCell>
        <mxCell id="FXd20-3gAOn-vbb6WulK-2" value="indico modo de uso de los pines para pulsador y salida para los led&amp;nbsp;" style="rounded=1;whiteSpace=wrap;html=1;" vertex="1" parent="1">
          <mxGeometry x="294" y="70" width="120" height="60" as="geometry" />
        </mxCell>
        <mxCell id="FXd20-3gAOn-vbb6WulK-15" value="" style="edgeStyle=orthogonalEdgeStyle;rounded=0;orthogonalLoop=1;jettySize=auto;html=1;" edge="1" parent="1" source="FXd20-3gAOn-vbb6WulK-3" target="FXd20-3gAOn-vbb6WulK-4">
          <mxGeometry relative="1" as="geometry" />
        </mxCell>
        <mxCell id="FXd20-3gAOn-vbb6WulK-3" value="Loop" style="rounded=1;whiteSpace=wrap;html=1;" vertex="1" parent="1">
          <mxGeometry x="100" y="190" width="120" height="60" as="geometry" />
        </mxCell>
        <mxCell id="FXd20-3gAOn-vbb6WulK-16" value="" style="edgeStyle=orthogonalEdgeStyle;rounded=0;orthogonalLoop=1;jettySize=auto;html=1;" edge="1" parent="1" source="FXd20-3gAOn-vbb6WulK-4" target="FXd20-3gAOn-vbb6WulK-5">
          <mxGeometry relative="1" as="geometry" />
        </mxCell>
        <mxCell id="FXd20-3gAOn-vbb6WulK-4" value="declaro pines de led como apagados" style="rounded=1;whiteSpace=wrap;html=1;" vertex="1" parent="1">
          <mxGeometry x="294" y="190" width="120" height="60" as="geometry" />
        </mxCell>
        <mxCell id="FXd20-3gAOn-vbb6WulK-17" style="edgeStyle=orthogonalEdgeStyle;rounded=0;orthogonalLoop=1;jettySize=auto;html=1;entryX=0.5;entryY=0;entryDx=0;entryDy=0;" edge="1" parent="1" source="FXd20-3gAOn-vbb6WulK-5" target="FXd20-3gAOn-vbb6WulK-6">
          <mxGeometry relative="1" as="geometry">
            <mxPoint x="510" y="280" as="targetPoint" />
            <Array as="points">
              <mxPoint x="540" y="280" />
              <mxPoint x="160" y="280" />
            </Array>
          </mxGeometry>
        </mxCell>
        <mxCell id="FXd20-3gAOn-vbb6WulK-5" value="genero lectura de pines de pulsadores" style="rounded=1;whiteSpace=wrap;html=1;" vertex="1" parent="1">
          <mxGeometry x="480" y="190" width="120" height="60" as="geometry" />
        </mxCell>
        <mxCell id="FXd20-3gAOn-vbb6WulK-18" value="" style="edgeStyle=orthogonalEdgeStyle;rounded=0;orthogonalLoop=1;jettySize=auto;html=1;" edge="1" parent="1" source="FXd20-3gAOn-vbb6WulK-6" target="FXd20-3gAOn-vbb6WulK-7">
          <mxGeometry relative="1" as="geometry" />
        </mxCell>
        <mxCell id="FXd20-3gAOn-vbb6WulK-20" style="edgeStyle=orthogonalEdgeStyle;rounded=0;orthogonalLoop=1;jettySize=auto;html=1;entryX=0;entryY=0.5;entryDx=0;entryDy=0;" edge="1" parent="1" source="FXd20-3gAOn-vbb6WulK-6" target="FXd20-3gAOn-vbb6WulK-10">
          <mxGeometry relative="1" as="geometry" />
        </mxCell>
        <mxCell id="FXd20-3gAOn-vbb6WulK-6" value="genero lectura de pines de pulsadores" style="rounded=1;whiteSpace=wrap;html=1;" vertex="1" parent="1">
          <mxGeometry x="100" y="310" width="120" height="60" as="geometry" />
        </mxCell>
        <mxCell id="FXd20-3gAOn-vbb6WulK-19" value="" style="edgeStyle=orthogonalEdgeStyle;rounded=0;orthogonalLoop=1;jettySize=auto;html=1;" edge="1" parent="1" source="FXd20-3gAOn-vbb6WulK-7" target="FXd20-3gAOn-vbb6WulK-8">
          <mxGeometry relative="1" as="geometry" />
        </mxCell>
        <mxCell id="FXd20-3gAOn-vbb6WulK-7" value="toma de decisión pulsador 1" style="rounded=1;whiteSpace=wrap;html=1;" vertex="1" parent="1">
          <mxGeometry x="294" y="310" width="120" height="60" as="geometry" />
        </mxCell>
        <mxCell id="FXd20-3gAOn-vbb6WulK-22" style="edgeStyle=orthogonalEdgeStyle;rounded=0;orthogonalLoop=1;jettySize=auto;html=1;" edge="1" parent="1" source="FXd20-3gAOn-vbb6WulK-8">
          <mxGeometry relative="1" as="geometry">
            <mxPoint x="100" y="340" as="targetPoint" />
            <Array as="points">
              <mxPoint x="630" y="340" />
              <mxPoint x="630" y="510" />
              <mxPoint x="70" y="510" />
              <mxPoint x="70" y="340" />
            </Array>
          </mxGeometry>
        </mxCell>
        <mxCell id="FXd20-3gAOn-vbb6WulK-8" value="verdadero = encienda 2 led" style="rounded=1;whiteSpace=wrap;html=1;" vertex="1" parent="1">
          <mxGeometry x="490" y="310" width="120" height="60" as="geometry" />
        </mxCell>
        <mxCell id="FXd20-3gAOn-vbb6WulK-21" value="" style="edgeStyle=orthogonalEdgeStyle;rounded=0;orthogonalLoop=1;jettySize=auto;html=1;" edge="1" parent="1" source="FXd20-3gAOn-vbb6WulK-10" target="FXd20-3gAOn-vbb6WulK-11">
          <mxGeometry relative="1" as="geometry" />
        </mxCell>
        <mxCell id="FXd20-3gAOn-vbb6WulK-10" value="toma de decisión pulsador 2" style="rounded=1;whiteSpace=wrap;html=1;" vertex="1" parent="1">
          <mxGeometry x="294" y="410" width="120" height="60" as="geometry" />
        </mxCell>
        <mxCell id="FXd20-3gAOn-vbb6WulK-23" style="edgeStyle=orthogonalEdgeStyle;rounded=0;orthogonalLoop=1;jettySize=auto;html=1;" edge="1" parent="1" source="FXd20-3gAOn-vbb6WulK-11">
          <mxGeometry relative="1" as="geometry">
            <mxPoint x="630" y="500" as="targetPoint" />
          </mxGeometry>
        </mxCell>
        <mxCell id="FXd20-3gAOn-vbb6WulK-11" value="verdadero = encienda 1 led&amp;nbsp;" style="rounded=1;whiteSpace=wrap;html=1;" vertex="1" parent="1">
          <mxGeometry x="490" y="410" width="120" height="60" as="geometry" />
        </mxCell>
      </root>
    </mxGraphModel>
  </diagram>
</mxfile>
